DataType=double
version=3
OpenSimVersion=4.2
endheader
time	ground_force_r_vx	ground_force_r_vy	ground_force_r_vz	ground_force_r_px	ground_force_r_py	ground_force_r_pz	ground_force_l_vx	ground_force_l_vy	ground_force_l_vz	ground_force_l_px	ground_force_l_py	ground_force_l_pz	ground_torque_r_x	ground_torque_r_y	ground_torque_r_z	ground_torque_l_x	ground_torque_l_y	ground_torque_l_z
1.083543101329121	0	0	0	0	0	0	-426.7612916937929	66.97238748825484	0	0	0	0	0	0	0	0	0	-12.5152130959742
1.084620816835767	0	0	0	0	0	0	-501.4749220833316	80.87093111507363	0	0	0	0	0	0	0	0	0	-14.35535703119755
1.085698532342412	0	0	0	0	0	0	-588.9717789995109	96.7666924549851	0	0	0	0	0	0	0	0	0	-16.52076382734704
1.086776247849058	0	0	0	0	0	0	-715.6895536835519	119.3629675899579	0	0	0	0	0	0	0	0	0	-19.70246936287113
1.087853963355703	0	0	0	0	0	0	-900.5836221293664	152.3374750595939	0	0	0	0	0	0	0	0	0	-24.34650536584656
1.088931678862349	0	0	0	0	0	0	-1142.616534085592	196.239394067406	0	0	0	0	0	0	0	0	0	-30.33541476913975
1.090009394368995	0	0	0	0	0	0	-1424.798406782501	248.9573854420658	0	0	0	0	0	0	0	0	0	-37.14707887162213
1.09108710987564	0	0	0	0	0	0	-1725.990047616195	307.6515265351305	0	0	0	0	0	0	0	0	0	-44.18875222484443
1.092164825382286	0	0	0	0	0	0	-2031.13943273928	370.3682692175108	0	0	0	0	0	0	0	0	0	-51.06549796381911
1.093242540888931	0	0	0	0	0	0	-2332.027341186674	436.2555400033953	0	0	0	0	0	0	0	0	0	-57.58196548397449
1.094320256395577	0	0	0	0	0	0	-2626.717527655302	505.542566682595	0	0	0	0	0	0	0	0	0	-63.71302888761563
1.095397971902223	0	0	0	0	0	0	-2918.25688627708	579.501271505294	0	0	0	0	0	0	0	0	0	-69.56187686025906
1.096475687408868	0	0	0	0	0	0	-3208.067609383025	659.5894985923682	0	0	0	0	0	0	0	0	0	-75.19919600478399
1.097553402915514	0	0	0	0	0	0	-3494.803156193562	747.3947075474827	0	0	0	0	0	0	0	0	0	-80.66067272934498
1.098631118422159	0	0	0	0	0	0	-3776.229047873287	845.5393206610111	0	0	0	0	0	0	0	0	0	-86.03111964738018
1.099708833928805	0	0	0	0	0	0	-4054.87821588584	959.2453324476472	0	0	0	0	0	0	0	0	0	-91.60250629226141
1.100786549435451	0	0	0	0	0	0	-4340.054037947517	1097.444767983036	0	0	0	0	0	0	0	0	0	-97.8111745698354
1.101864264942096	0	0	0	0	0	0	-4653.239431129459	1276.135485539977	0	0	0	0	0	0	0	0	0	-105.2542248645767
1.102941980448742	0	0	0	0	0	0	-5382.575323867666	1632.007114601645	0	0	0	0	0	0	0	0	0	-125.4278045665462
1.104019695955388	0	0	0	0	0	0	-7403.443681506953	2556.498280092332	0	0	0	0	0	0	0	0	0	-180.5537092281996
1.105097411462033	0	0	0	0	0	0	-10231.22711620817	4218.430268084519	0	0	0	0	0	0	0	0	0	-245.3909071650309
1.106175126968679	0	0	0	0	0	0	-11612.53487568051	6326.453433684072	0	0	0	0	0	0	0	0	0	-246.5904208259938
1.107252842475324	0	0	0	0	0	0	-9003.908654288585	7157.112174437349	0	0	0	0	0	0	0	0	0	-139.8562197494447
1.10833055798197	0	0	0	0	0	0	-5084.001322607543	5370.9147788797	0	0	0	0	0	0	0	0	0	-47.26621479014737
1.109408273488615	0	0	0	0	0	0	-2501.353216388046	3157.442870485457	0	0	0	0	0	0	0	0	0	-9.738180864204994
1.110485988995261	0	0	0	0	0	0	-1539.670438071223	2245.130619133718	0	0	0	0	0	0	0	0	0	0.4363847217853056
1.111563704501907	0	0	0	0	0	0	-1013.437924483568	1895.787103236403	0	0	0	0	0	0	0	0	0	7.653413922919261
1.112641420008552	0	0	0	0	0	0	-845.5686524632072	1587.658467779049	0	0	0	0	0	0	0	0	0	5.039562523294583
1.113719135515198	0	0	0	0	0	0	-721.1244668100699	1500.290792265027	0	0	0	0	0	0	0	0	0	6.316702893022775
1.114796851021844	0	0	0	0	0	0	-693.0216014403247	1479.082000856687	0	0	0	0	0	0	0	0	0	6.738247024429581
1.115874566528489	0	0	0	0	0	0	-645.7979529163863	1486.300031811357	0	0	0	0	0	0	0	0	0	8.273721620778526
1.116952282035135	0	0	0	0	0	0	-615.185534050715	1498.397455558539	0	0	0	0	0	0	0	0	0	9.374457308628187
1.11802999754178	0	0	0	0	0	0	-590.1527875947604	1559.187066878267	0	0	0	0	0	0	0	0	0	11.21375465981836
1.119107713048426	0	0	0	0	0	0	-617.0163471202367	1657.501062190624	0	0	0	0	0	0	0	0	0	12.13451684733112
1.120185428555072	0	0	0	0	0	0	-718.4871495828322	1794.674121558966	0	0	0	0	0	0	0	0	0	11.44249550640644
1.121263144061717	0	0	0	0	0	0	-885.1949856274952	1964.19157485082	0	0	0	0	0	0	0	0	0	9.294367836027398
1.122340859568363	0	0	0	0	0	0	-1061.331326954963	2149.912300530936	0	0	0	0	0	0	0	0	0	7.123628576106675
1.123418575075009	0	0	0	0	0	0	-1212.809428570834	2334.984593918404	0	0	0	0	0	0	0	0	0	5.684129188049639
1.124496290581654	0	0	0	0	0	0	-1325.735666254576	2515.298864032275	0	0	0	0	0	0	0	0	0	5.340361284444739
1.125574006088299	0	0	0	0	0	0	-1393.272477591018	2686.398134701036	0	0	0	0	0	0	0	0	0	6.228575220685116
1.126651721594945	0	0	0	0	0	0	-1413.679963591538	2846.83727802307	0	0	0	0	0	0	0	0	0	8.378732856220545
1.127729437101591	0	0	0	0	0	0	-1392.233944733054	2996.493694919891	0	0	0	0	0	0	0	0	0	11.62330093321785
1.128807152608236	0	0	0	0	0	0	-1336.607788003142	3138.239792415134	0	0	0	0	0	0	0	0	0	15.77319720203316
1.129884868114882	0	0	0	0	0	0	-1253.352476673968	3273.923261975087	0	0	0	0	0	0	0	0	0	20.65425131654403
1.130962583621528	0	0	0	0	0	0	-1147.263432407682	3405.078861630222	0	0	0	0	0	0	0	0	0	26.14071075761326
1.132040299128173	0	0	0	0	0	0	-1022.762601331911	3532.249704991872	0	0	0	0	0	0	0	0	0	32.10012033013267
1.133118014634819	0	0	0	0	0	0	-884.7523759598567	3658.050683423666	0	0	0	0	0	0	0	0	0	38.42277756752377
1.134195730141464	0	0	0	0	0	0	-734.2701000673353	3781.481695923846	0	0	0	0	0	0	0	0	0	45.05346419450076
1.13527344564811	0	0	0	0	0	0	-577.2813196281821	3901.979416697663	0	0	0	0	0	0	0	0	0	51.79323102636981
1.136351161154756	0	0	0	0	0	0	-420.3376709114703	4020.854583104379	0	0	0	0	0	0	0	0	0	58.46053914863403
1.137428876661401	0	0	0	0	0	0	-265.0986438752777	4134.934047331354	0	0	0	0	0	0	0	0	0	64.94644893969433
1.138506592168047	0	0	0	0	0	0	-111.5288637103143	4243.512555214003	0	0	0	0	0	0	0	0	0	71.23928611592093
1.139584307674693	0	0	0	0	0	0	42.1432262225671	4344.971132816801	0	0	0	0	0	0	0	0	0	77.36516401527383
1.140662023181338	0	0	0	0	0	0	196.6232949042936	4438.776068212385	0	0	0	0	0	0	0	0	0	83.33727324142475
1.141739738687984	0	0	0	0	0	0	353.6535379350742	4524.607723550233	0	0	0	0	0	0	0	0	0	89.20436997654441
1.142817454194629	0	0	0	0	0	0	512.8376756415117	4602.37838401488	0	0	0	0	0	0	0	0	0	94.9546575573218
1.143895169701275	0	0	0	0	0	0	674.5963599164725	4672.56084978874	0	0	0	0	0	0	0	0	0	100.6110300882498
1.14497288520792	0	0	0	0	0	0	838.8154949675607	4735.115971315915	0	0	0	0	0	0	0	0	0	106.1716475936102
1.146050600714566	0	0	0	0	0	0	1006.424442178351	4789.601367003223	0	0	0	0	0	0	0	0	0	111.6593388434725
1.147128316221212	0	0	0	0	0	0	1176.317748288326	4835.642045092542	0	0	0	0	0	0	0	0	0	117.037546342788
1.148206031727857	0	0	0	0	0	0	1347.769249299701	4873.23512511738	0	0	0	0	0	0	0	0	0	122.2879155913157
1.149283747234503	0	0	0	0	0	0	1518.950067359672	4901.926282634955	0	0	0	0	0	0	0	0	0	127.3523074675583
1.150361462741149	0	0	0	0	0	0	1688.286680829412	4921.456297130473	0	0	0	0	0	0	0	0	0	132.1842353583096
1.151439178247794	0	0	0	0	0	0	1853.295246376309	4932.083424056337	0	0	0	0	0	0	0	0	0	136.7195807248959
1.15251689375444	0	0	0	0	0	0	2012.005193077416	4934.527634950468	0	0	0	0	0	0	0	0	0	140.917450618318
1.153594609261085	0	0	0	0	0	0	2162.10022604407	4929.958865480335	0	0	0	0	0	0	0	0	0	144.73417591214
1.154672324767731	0	0	0	0	0	0	2301.749549678605	4919.884335843682	0	0	0	0	0	0	0	0	0	148.1453666467923
1.155750040274377	0	0	0	0	0	0	2430.005634833825	4904.503060771099	0	0	0	0	0	0	0	0	0	151.130826948092
1.156827755781022	0	0	0	0	0	0	2545.994704670633	4882.570903022675	0	0	0	0	0	0	0	0	0	153.6490034076828
1.157905471287668	0	0	0	0	0	0	2647.093868856629	4853.52776964837	0	0	0	0	0	0	0	0	0	155.6175705772949
1.158983186794313	0	0	0	0	0	0	2732.010114135496	4816.931890353429	0	0	0	0	0	0	0	0	0	156.9949829786305
1.160060902300959	0	0	0	0	0	0	2798.597405873099	4771.76408320166	0	0	0	0	0	0	0	0	0	157.7046899951122
1.161138617807604	0	0	0	0	0	0	2845.546071056246	4717.297928169516	0	0	0	0	0	0	0	0	0	157.6988824223488
1.16221633331425	0	0	0	0	0	0	2870.552692706058	4651.900917742659	0	0	0	0	0	0	0	0	0	156.8852929318953
1.163294048820896	0	0	0	0	0	0	2872.218874505104	4571.548365997885	0	0	0	0	0	0	0	0	0	155.1622899451581
1.164371764327541	0	0	0	0	0	0	2847.853773653929	4476.664492699839	0	0	0	0	0	0	0	0	0	152.4569155915876
1.165449479834187	0	0	0	0	0	0	2796.569856968475	4370.090836854161	0	0	0	0	0	0	0	0	0	148.7829046225728
1.166527195340833	0	0	0	0	0	0	2720.571197745883	4248.204005846684	0	0	0	0	0	0	0	0	0	144.1497366101978
1.167604910847478	0	0	0	0	0	0	2619.406233435012	4111.040631545767	0	0	0	0	0	0	0	0	0	138.5417528084747
1.168682626354124	0	0	0	0	0	0	2499.655921334158	3960.67005979278	0	0	0	0	0	0	0	0	0	132.1861459721205
1.16976034186077	0	0	0	0	0	0	2368.939128559294	3795.264832864121	0	0	0	0	0	0	0	0	0	125.2916984529716
1.170838057367415	0	0	0	0	0	0	2231.687218575321	3617.140230300412	0	0	0	0	0	0	0	0	0	118.0321425548157
1.171915772874061	0	0	0	0	0	0	2093.843753567411	3428.160502188999	0	0	0	0	0	0	0	0	0	110.6251046707194
1.172993488380706	0	0	0	0	0	0	1957.58624142051	3227.923031377673	0	0	0	0	0	0	0	0	0	103.1453453411294
1.174071203887352	0	0	0	0	0	0	1823.910133835815	3019.043591934911	0	0	0	0	0	0	0	0	0	95.67190310266835
1.175148919393997	0	0	0	0	0	0	1693.71482406221	2802.210873965797	0	0	0	0	0	0	0	0	0	88.25723082414648
1.176226634900643	0	0	0	0	0	0	1567.365716333767	2579.933304247545	0	0	0	0	0	0	0	0	0	80.959445154728
1.177304350407289	0	0	0	0	0	0	1445.969106188704	2354.553379878907	0	0	0	0	0	0	0	0	0	73.85766300237846
1.178382065913934	0	0	0	0	0	0	1330.946550350212	2127.812510241734	0	0	0	0	0	0	0	0	0	67.03414216017036
1.17945978142058	0	0	0	0	0	0	1223.122461358624	1901.198839483356	0	0	0	0	0	0	0	0	0	60.54895735986423
1.180537496927225	0	0	0	0	0	0	1123.284203511949	1676.794173178743	0	0	0	0	0	0	0	0	0	54.4662618266857
1.181615212433871	0	0	0	0	0	0	1030.365674937286	1462.816276228527	0	0	0	0	0	0	0	0	0	48.84130363829523
1.182692927940517	0	0	0	0	0	0	943.584902113124	1261.840938760418	0	0	0	0	0	0	0	0	0	43.67132230920447
1.183770643447162	0	0	0	0	0	0	813.5692817394645	1031.775304351246	0	0	0	0	0	0	0	0	0	36.8825972355958
1.184848358953808	0	0	0	0	0	0	651.2452233699188	720.7254204612726	0	0	0	0	0	0	0	0	0	28.48789988856244
1.185926074460454	0	0	0	0	0	0	369.0658697227936	382.545369881733	0	0	0	0	0	0	0	0	0	15.85389484880805
1.187003789967099	0	0	0	0	0	0	-11.21238276512121	-10.82490096172307	0	0	0	0	0	0	0	0	0	-0.4735966224039244
